<svg width="26" height="26" viewBox="0 0 26 26" fill="none" xmlns="http://www.w3.org/2000/svg">
<path d="M18.8496 0.5C22.5384 0.5 25.5 3.65013 25.5 7.79297C25.5 10.313 24.4611 12.639 22.5527 15.1836C21.1167 17.0984 19.2122 19.1075 16.9336 21.3916L14.5332 23.7744L13 25.2949L11.4668 23.7744L9.06641 21.3916C6.78781 19.1075 4.88334 17.0984 3.44727 15.1836C1.53895 12.639 0.500015 10.313 0.5 7.79297C0.5 3.65013 3.46162 0.5 7.15039 0.5C9.24439 0.500133 11.2759 1.56591 12.6074 3.25684L13 3.75488L13.3926 3.25684C14.7241 1.56591 16.7556 0.500132 18.8496 0.5Z" stroke="black"/>
</svg>
