<svg width="16" height="12" viewBox="0 0 16 12" fill="none" xmlns="http://www.w3.org/2000/svg">
<mask id="path-1-inside-1_13_494" fill="white">
<path d="M6.7 10.85C6.9 10.65 6.996 10.4083 6.988 10.125C6.97933 9.84167 6.875 9.6 6.675 9.4L3.85 6.575H15C15.2833 6.575 15.521 6.479 15.713 6.287C15.9043 6.09567 16 5.85833 16 5.575C16 5.29167 15.9043 5.054 15.713 4.862C15.521 4.67067 15.2833 4.575 15 4.575H3.85L6.7 1.725C6.9 1.525 7 1.28733 7 1.012C7 0.737333 6.9 0.5 6.7 0.3C6.5 0.0999997 6.26233 0 5.987 0C5.71233 0 5.475 0.0999997 5.275 0.3L0.700001 4.875C0.6 4.975 0.528999 5.08333 0.487 5.2C0.445666 5.31667 0.424999 5.44167 0.424999 5.575C0.424999 5.70833 0.445666 5.83333 0.487 5.95C0.528999 6.06667 0.6 6.175 0.700001 6.275L5.3 10.875C5.48333 11.0583 5.71233 11.15 5.987 11.15C6.26233 11.15 6.5 11.05 6.7 10.85Z"/>
</mask>
<path d="M6.7 10.85C6.9 10.65 6.996 10.4083 6.988 10.125C6.97933 9.84167 6.875 9.6 6.675 9.4L3.85 6.575H15C15.2833 6.575 15.521 6.479 15.713 6.287C15.9043 6.09567 16 5.85833 16 5.575C16 5.29167 15.9043 5.054 15.713 4.862C15.521 4.67067 15.2833 4.575 15 4.575H3.85L6.7 1.725C6.9 1.525 7 1.28733 7 1.012C7 0.737333 6.9 0.5 6.7 0.3C6.5 0.0999997 6.26233 0 5.987 0C5.71233 0 5.475 0.0999997 5.275 0.3L0.700001 4.875C0.6 4.975 0.528999 5.08333 0.487 5.2C0.445666 5.31667 0.424999 5.44167 0.424999 5.575C0.424999 5.70833 0.445666 5.83333 0.487 5.95C0.528999 6.06667 0.6 6.175 0.700001 6.275L5.3 10.875C5.48333 11.0583 5.71233 11.15 5.987 11.15C6.26233 11.15 6.5 11.05 6.7 10.85Z" fill="#4A5568"/>
<path d="M6.988 10.125L10.9861 10.0027L10.9864 10.0121L6.988 10.125ZM3.85 6.575L1.02157 9.40343L-5.80685 2.575H3.85V6.575ZM15.713 4.862L18.5365 2.02864L18.5463 2.0385L15.713 4.862ZM3.85 4.575V8.575H-5.80685L1.02157 1.74657L3.85 4.575ZM6.7 1.725L3.87157 -1.10343V-1.10343L6.7 1.725ZM5.275 0.3L2.44657 -2.52843V-2.52843L5.275 0.3ZM0.700001 4.875L3.52843 7.70343V7.70343L0.700001 4.875ZM0.487 5.2L-3.28337 3.86421L-3.27998 3.85466L-3.27655 3.84512L0.487 5.2ZM0.487 5.95L-3.27655 7.30488L-3.27998 7.29534L-3.28337 7.28579L0.487 5.95ZM6.7 10.85L3.87157 8.02157C3.62037 8.27278 3.37481 8.61346 3.20457 9.04203C3.0344 9.47041 2.97964 9.88544 2.98959 10.2379L6.988 10.125L10.9864 10.0121C11.0254 11.3924 10.5082 12.6987 9.52843 13.6784L6.7 10.85ZM6.988 10.125L2.98987 10.2473C2.99976 10.5705 3.06831 10.9402 3.23088 11.3167C3.39351 11.6934 3.61612 11.998 3.84657 12.2284L6.675 9.4L9.50343 6.57157C10.4254 7.49356 10.9464 8.7038 10.9861 10.0027L6.988 10.125ZM6.675 9.4L3.84657 12.2284L1.02157 9.40343L3.85 6.575L6.67843 3.74657L9.50343 6.57157L6.675 9.4ZM3.85 6.575V2.575H15V6.575V10.575H3.85V6.575ZM15 6.575V2.575C14.6824 2.575 14.2976 2.63055 13.8926 2.79414C13.4843 2.95909 13.1455 3.19763 12.8846 3.45857L15.713 6.287L18.5414 9.11543C17.5637 10.0932 16.2928 10.575 15 10.575V6.575ZM15.713 6.287L12.8846 3.45857C12.6219 3.72121 12.3831 4.06129 12.2183 4.47006C12.055 4.87516 12 5.2592 12 5.575H16H20C20 6.86354 19.5214 8.13549 18.5414 9.11543L15.713 6.287ZM16 5.575H12C12 5.89088 12.055 6.27408 12.2176 6.67789C12.3815 7.08519 12.619 7.42392 12.8797 7.6855L15.713 4.862L18.5463 2.0385C19.5217 3.01722 20 4.28659 20 5.575H16ZM15.713 4.862L12.8895 7.69534C13.1511 7.95602 13.4898 8.19347 13.8971 8.35742C14.3009 8.51996 14.6841 8.575 15 8.575V4.575V0.575C16.2884 0.575 17.5578 1.05333 18.5365 2.02866L15.713 4.862ZM15 4.575V8.575H3.85V4.575V0.575H15V4.575ZM3.85 4.575L1.02157 1.74657L3.87157 -1.10343L6.7 1.725L9.52843 4.55343L6.67843 7.40343L3.85 4.575ZM6.7 1.725L3.87157 -1.10343C3.64107 -0.872925 3.40754 -0.557325 3.23807 -0.154555C3.0677 0.250348 3 0.653474 3 1.012H7H11C11 2.38015 10.4557 3.62618 9.52843 4.55343L6.7 1.725ZM7 1.012H3C3 1.37218 3.06819 1.77613 3.23885 2.18115C3.40853 2.58385 3.64197 2.89882 3.87157 3.12843L6.7 0.3L9.52843 -2.52843C10.4536 -1.60326 11 -0.358345 11 1.012H7ZM6.7 0.3L3.87157 3.12843C4.10208 3.35893 4.41768 3.59246 4.82045 3.76193C5.22535 3.9323 5.62848 4 5.987 4V0V-4C7.35515 -4 8.60118 -3.45567 9.52843 -2.52843L6.7 0.3ZM5.987 0V4C6.34718 4 6.75113 3.93181 7.15615 3.76115C7.55885 3.59148 7.87382 3.35804 8.10343 3.12843L5.275 0.3L2.44657 -2.52843C3.37175 -3.4536 4.61666 -4 5.987 -4V0ZM5.275 0.3L8.10343 3.12843L3.52843 7.70343L0.700001 4.875L-2.12843 2.04657L2.44657 -2.52843L5.275 0.3ZM0.700001 4.875L3.52843 7.70343C3.78621 7.44564 4.06682 7.06523 4.25055 6.55488L0.487 5.2L-3.27655 3.84512C-3.00882 3.10143 -2.58621 2.50436 -2.12843 2.04657L0.700001 4.875ZM0.487 5.2L4.25737 6.53579C4.37934 6.1915 4.425 5.86152 4.425 5.575H0.424999H-3.575C-3.575 5.02181 -3.48801 4.44183 -3.28337 3.86421L0.487 5.2ZM0.424999 5.575H4.425C4.425 5.28848 4.37934 4.9585 4.25737 4.61421L0.487 5.95L-3.28337 7.28579C-3.48801 6.70817 -3.575 6.12818 -3.575 5.575H0.424999ZM0.487 5.95L4.25055 4.59512C4.06682 4.08477 3.78621 3.70436 3.52843 3.44657L0.700001 6.275L-2.12843 9.10343C-2.58621 8.64564 -3.00882 8.04856 -3.27655 7.30488L0.487 5.95ZM0.700001 6.275L3.52843 3.44657L8.12843 8.04657L5.3 10.875L2.47157 13.7034L-2.12843 9.10343L0.700001 6.275ZM5.3 10.875L8.12843 8.04657C7.85721 7.77536 7.50936 7.53329 7.09575 7.36772C6.68672 7.20399 6.30116 7.15 5.987 7.15V11.15V15.15C4.72138 15.15 3.45308 14.6849 2.47157 13.7034L5.3 10.875ZM5.987 11.15V7.15C5.62847 7.15 5.22534 7.21771 4.82044 7.38807C4.41767 7.55754 4.10207 7.79107 3.87157 8.02157L6.7 10.85L9.52843 13.6784C8.60119 14.6057 7.35517 15.15 5.987 15.15V11.15Z" fill="#DBDBDB" mask="url(#path-1-inside-1_13_494)"/>
</svg>
