<svg width="15" height="20" viewBox="0 0 15 20" fill="none" xmlns="http://www.w3.org/2000/svg">
<path d="M0.573599 0.440231C0.206324 0.722196 0 1.10457 0 1.50327C0 1.90197 0.206324 2.28434 0.573599 2.56631L10.2711 10.0091L0.573599 17.4518C0.216732 17.7354 0.0192661 18.1152 0.0237293 18.5095C0.0281935 18.9037 0.23423 19.2808 0.597463 19.5596C0.960696 19.8384 1.45206 19.9965 1.96573 19.9999C2.4794 20.0034 2.97428 19.8518 3.34377 19.5779L14.4264 11.0721C14.7937 10.7902 15 10.4078 15 10.0091C15 9.61038 14.7937 9.228 14.4264 8.94604L3.34377 0.440231C2.97638 0.158351 2.47817 0 1.95868 0C1.4392 0 0.940984 0.158351 0.573599 0.440231Z" fill="black"/>
</svg>
