<svg width="16" height="12" viewBox="0 0 16 12" fill="none" xmlns="http://www.w3.org/2000/svg">
<mask id="path-1-inside-1_13_490" fill="white">
<path d="M9.3 10.85C9.1 10.65 9.004 10.4083 9.012 10.125C9.02067 9.84167 9.125 9.6 9.325 9.4L12.15 6.575H1C0.716667 6.575 0.479 6.479 0.287 6.287C0.0956668 6.09567 0 5.85833 0 5.575C0 5.29167 0.0956668 5.054 0.287 4.862C0.479 4.67067 0.716667 4.575 1 4.575H12.15L9.3 1.725C9.1 1.525 9 1.28733 9 1.012C9 0.737333 9.1 0.5 9.3 0.3C9.5 0.0999997 9.73767 0 10.013 0C10.2877 0 10.525 0.0999997 10.725 0.3L15.3 4.875C15.4 4.975 15.471 5.08333 15.513 5.2C15.5543 5.31667 15.575 5.44167 15.575 5.575C15.575 5.70833 15.5543 5.83333 15.513 5.95C15.471 6.06667 15.4 6.175 15.3 6.275L10.7 10.875C10.5167 11.0583 10.2877 11.15 10.013 11.15C9.73767 11.15 9.5 11.05 9.3 10.85Z"/>
</mask>
<path d="M9.3 10.85C9.1 10.65 9.004 10.4083 9.012 10.125C9.02067 9.84167 9.125 9.6 9.325 9.4L12.15 6.575H1C0.716667 6.575 0.479 6.479 0.287 6.287C0.0956668 6.09567 0 5.85833 0 5.575C0 5.29167 0.0956668 5.054 0.287 4.862C0.479 4.67067 0.716667 4.575 1 4.575H12.15L9.3 1.725C9.1 1.525 9 1.28733 9 1.012C9 0.737333 9.1 0.5 9.3 0.3C9.5 0.0999997 9.73767 0 10.013 0C10.2877 0 10.525 0.0999997 10.725 0.3L15.3 4.875C15.4 4.975 15.471 5.08333 15.513 5.2C15.5543 5.31667 15.575 5.44167 15.575 5.575C15.575 5.70833 15.5543 5.83333 15.513 5.95C15.471 6.06667 15.4 6.175 15.3 6.275L10.7 10.875C10.5167 11.0583 10.2877 11.15 10.013 11.15C9.73767 11.15 9.5 11.05 9.3 10.85Z" fill="#4A5568"/>
<path d="M9.012 10.125L5.01386 10.0027L5.01359 10.0121L9.012 10.125ZM12.15 6.575L14.9784 9.40343L21.8069 2.575H12.15V6.575ZM0.287 4.862L-2.53652 2.02864L-2.54634 2.0385L0.287 4.862ZM12.15 4.575V8.575H21.8069L14.9784 1.74657L12.15 4.575ZM9.3 1.725L12.1284 -1.10343V-1.10343L9.3 1.725ZM10.725 0.3L13.5534 -2.52843V-2.52843L10.725 0.3ZM15.3 4.875L12.4716 7.70343V7.70343L15.3 4.875ZM15.513 5.2L19.2834 3.86421L19.28 3.85466L19.2766 3.84512L15.513 5.2ZM15.513 5.95L19.2766 7.30488L19.28 7.29534L19.2834 7.28579L15.513 5.95ZM9.3 10.85L12.1284 8.02157C12.3796 8.27278 12.6252 8.61346 12.7954 9.04203C12.9656 9.47041 13.0204 9.88544 13.0104 10.2379L9.012 10.125L5.01359 10.0121C4.97462 11.3924 5.49184 12.6987 6.47157 13.6784L9.3 10.85ZM9.012 10.125L13.0101 10.2473C13.0002 10.5705 12.9317 10.9402 12.7691 11.3167C12.6065 11.6934 12.3839 11.998 12.1534 12.2284L9.325 9.4L6.49657 6.57157C5.57458 7.49356 5.0536 8.7038 5.01387 10.0027L9.012 10.125ZM9.325 9.4L12.1534 12.2284L14.9784 9.40343L12.15 6.575L9.32157 3.74657L6.49657 6.57157L9.325 9.4ZM12.15 6.575V2.575H1V6.575V10.575H12.15V6.575ZM1 6.575V2.575C1.31759 2.575 1.70237 2.63055 2.10736 2.79414C2.51574 2.95909 2.85449 3.19763 3.11543 3.45857L0.287 6.287L-2.54143 9.11543C-1.5637 10.0932 -0.292792 10.575 1 10.575V6.575ZM0.287 6.287L3.11543 3.45857C3.37806 3.72121 3.61692 4.06129 3.78169 4.47006C3.94498 4.87516 4 5.2592 4 5.575H0H-4C-4 6.86354 -3.52136 8.13549 -2.54143 9.11543L0.287 6.287ZM0 5.575H4C4 5.89088 3.94496 6.27408 3.78242 6.67789C3.61847 7.08519 3.38102 7.42392 3.12034 7.6855L0.287 4.862L-2.54634 2.0385C-3.52167 3.01722 -4 4.28659 -4 5.575H0ZM0.287 4.862L3.1105 7.69534C2.84892 7.95602 2.51019 8.19347 2.10288 8.35742C1.69907 8.51996 1.31588 8.575 1 8.575V4.575V0.575C-0.288408 0.575 -1.55778 1.05333 -2.5365 2.02866L0.287 4.862ZM1 4.575V8.575H12.15V4.575V0.575H1V4.575ZM12.15 4.575L14.9784 1.74657L12.1284 -1.10343L9.3 1.725L6.47157 4.55343L9.32157 7.40343L12.15 4.575ZM9.3 1.725L12.1284 -1.10343C12.3589 -0.872925 12.5925 -0.557325 12.7619 -0.154555C12.9323 0.250348 13 0.653474 13 1.012H9H5C5 2.38015 5.54433 3.62618 6.47157 4.55343L9.3 1.725ZM9 1.012H13C13 1.37218 12.9318 1.77613 12.7612 2.18115C12.5915 2.58385 12.358 2.89882 12.1284 3.12843L9.3 0.3L6.47157 -2.52843C5.54641 -1.60326 5 -0.358345 5 1.012H9ZM9.3 0.3L12.1284 3.12843C11.8979 3.35893 11.5823 3.59246 11.1796 3.76193C10.7746 3.9323 10.3715 4 10.013 4V0V-4C8.64485 -4 7.39882 -3.45567 6.47157 -2.52843L9.3 0.3ZM10.013 0V4C9.65282 4 9.24887 3.93181 8.84385 3.76115C8.44115 3.59148 8.12618 3.35804 7.89657 3.12843L10.725 0.3L13.5534 -2.52843C12.6283 -3.4536 11.3833 -4 10.013 -4V0ZM10.725 0.3L7.89657 3.12843L12.4716 7.70343L15.3 4.875L18.1284 2.04657L13.5534 -2.52843L10.725 0.3ZM15.3 4.875L12.4716 7.70343C12.2138 7.44564 11.9332 7.06523 11.7495 6.55488L15.513 5.2L19.2766 3.84512C19.0088 3.10143 18.5862 2.50436 18.1284 2.04657L15.3 4.875ZM15.513 5.2L11.7426 6.53579C11.6207 6.1915 11.575 5.86152 11.575 5.575H15.575H19.575C19.575 5.02181 19.488 4.44183 19.2834 3.86421L15.513 5.2ZM15.575 5.575H11.575C11.575 5.28848 11.6207 4.9585 11.7426 4.61421L15.513 5.95L19.2834 7.28579C19.488 6.70817 19.575 6.12818 19.575 5.575H15.575ZM15.513 5.95L11.7495 4.59512C11.9332 4.08477 12.2138 3.70436 12.4716 3.44657L15.3 6.275L18.1284 9.10343C18.5862 8.64564 19.0088 8.04856 19.2766 7.30488L15.513 5.95ZM15.3 6.275L12.4716 3.44657L7.87157 8.04657L10.7 10.875L13.5284 13.7034L18.1284 9.10343L15.3 6.275ZM10.7 10.875L7.87157 8.04657C8.14279 7.77536 8.49064 7.53329 8.90425 7.36772C9.31328 7.20399 9.69884 7.15 10.013 7.15V11.15V15.15C11.2786 15.15 12.5469 14.6849 13.5284 13.7034L10.7 10.875ZM10.013 11.15V7.15C10.3715 7.15 10.7747 7.21771 11.1796 7.38807C11.5823 7.55754 11.8979 7.79107 12.1284 8.02157L9.3 10.85L6.47157 13.6784C7.39881 14.6057 8.64483 15.15 10.013 15.15V11.15Z" fill="#DBDBDB" mask="url(#path-1-inside-1_13_490)"/>
</svg>
