<svg width="35" height="28" viewBox="0 0 35 28" fill="none" xmlns="http://www.w3.org/2000/svg">
<path d="M11 25.8333C11.6444 25.8333 12.1667 25.3483 12.1667 24.75C12.1667 24.1517 11.6444 23.6667 11 23.6667C10.3557 23.6667 9.83337 24.1517 9.83337 24.75C9.83337 25.3483 10.3557 25.8333 11 25.8333Z" stroke="white" stroke-width="2" stroke-linecap="round" stroke-linejoin="round"/>
<path d="M23.8333 25.8333C24.4776 25.8333 25 25.3483 25 24.75C25 24.1517 24.4776 23.6667 23.8333 23.6667C23.189 23.6667 22.6666 24.1517 22.6666 24.75C22.6666 25.3483 23.189 25.8333 23.8333 25.8333Z" stroke="white" stroke-width="2" stroke-linecap="round" stroke-linejoin="round"/>
<path d="M1.66663 3.08333H6.33329L9.45996 17.5892C9.56665 18.0879 9.85885 18.536 10.2854 18.8548C10.712 19.1737 11.2458 19.3431 11.7933 19.3333H23.1333C23.6808 19.3431 24.2146 19.1737 24.6412 18.8548C25.0677 18.536 25.3599 18.0879 25.4666 17.5892L27.3333 8.5H7.49996" stroke="white" stroke-width="2" stroke-linecap="round" stroke-linejoin="round"/>
<rect x="22" width="13" height="14" rx="6.5" fill="#FFBE30"/>
<path d="M27.8037 5.316C27.9317 5.28933 28.0544 5.27067 28.1717 5.26C28.289 5.24667 28.4024 5.24 28.5117 5.24C28.8157 5.24 29.0837 5.28533 29.3157 5.376C29.5477 5.46667 29.7424 5.592 29.8997 5.752C30.057 5.912 30.1757 6.1 30.2557 6.316C30.3357 6.52933 30.3757 6.76 30.3757 7.008C30.3757 7.31467 30.321 7.59467 30.2117 7.848C30.105 8.10133 29.9557 8.31867 29.7637 8.5C29.5717 8.67867 29.3437 8.81733 29.0797 8.916C28.8184 9.01467 28.533 9.064 28.2237 9.064C28.0424 9.064 27.8704 9.04533 27.7077 9.008C27.545 8.97067 27.3917 8.92133 27.2477 8.86C27.1064 8.796 26.9744 8.724 26.8517 8.644C26.7317 8.56133 26.6237 8.47467 26.5277 8.384L26.8317 7.964C26.8957 7.87333 26.9797 7.828 27.0837 7.828C27.1504 7.828 27.2184 7.84933 27.2877 7.892C27.357 7.93467 27.4357 7.98133 27.5237 8.032C27.6144 8.08267 27.7197 8.12933 27.8397 8.172C27.9624 8.21467 28.109 8.236 28.2797 8.236C28.461 8.236 28.621 8.20667 28.7597 8.148C28.8984 8.08933 29.013 8.008 29.1037 7.904C29.197 7.79733 29.2664 7.672 29.3117 7.528C29.3597 7.38133 29.3837 7.22267 29.3837 7.052C29.3837 6.73733 29.2917 6.492 29.1077 6.316C28.9264 6.13733 28.657 6.048 28.2997 6.048C28.025 6.048 27.7437 6.09867 27.4557 6.2L26.8397 6.024L27.3197 3.216H30.1757V3.636C30.1757 3.77733 30.1317 3.892 30.0437 3.98C29.9557 4.068 29.8064 4.112 29.5957 4.112H28.0077L27.8037 5.316Z" fill="white"/>
</svg>
