<svg width="10" height="7" viewBox="0 0 10 7" fill="none" xmlns="http://www.w3.org/2000/svg">
<path d="M9.77988 0.267679C9.6389 0.0962844 9.44771 0 9.24837 0C9.04902 0 8.85783 0.0962844 8.71685 0.267679L4.99546 4.7932L1.27408 0.267679C1.13229 0.101142 0.94238 0.00899076 0.745262 0.0110741C0.548143 0.0131569 0.359584 0.109307 0.220195 0.278816C0.0808067 0.448325 0.00174141 0.67763 2.86102e-05 0.917343C-0.00168419 1.15705 0.0740929 1.388 0.211038 1.56042L4.46394 6.73232C4.60492 6.90372 4.79611 7 4.99546 7C5.19481 7 5.386 6.90372 5.52698 6.73232L9.77988 1.56042C9.92082 1.38898 10 1.15648 10 0.914052C10 0.671627 9.92082 0.439126 9.77988 0.267679Z" fill="white"/>
</svg>
