<svg width="131" height="45" viewBox="0 0 131 45" fill="none" xmlns="http://www.w3.org/2000/svg">
<path d="M0.46875 38V35.5977L2.23828 35.2227V23.7266L0.46875 23.3516V20.9375H14.5195V25.9648H11.4141L11.332 24.1016H6.35156V28.0508H12.1523V31.1914H6.35156V35.2227L8.12109 35.5977V38H0.46875ZM23.332 38.2461C22.1523 38.2461 21.0664 38.0312 20.0742 37.6016C19.0898 37.1641 18.2344 36.5547 17.5078 35.7734C16.7812 34.9922 16.2188 34.0781 15.8203 33.0312C15.4297 31.9766 15.2344 30.832 15.2344 29.5977V29.3281C15.2344 28.1016 15.4297 26.9648 15.8203 25.918C16.2188 24.8711 16.7773 23.957 17.4961 23.1758C18.2227 22.3945 19.0781 21.7852 20.0625 21.3477C21.0469 20.9102 22.1289 20.6914 23.3086 20.6914C24.4648 20.6914 25.5391 20.9102 26.5312 21.3477C27.5234 21.7852 28.3906 22.3945 29.1328 23.1758C29.8828 23.957 30.4648 24.8711 30.8789 25.918C31.293 26.9648 31.5 28.1016 31.5 29.3281V29.5977C31.5 30.832 31.293 31.9766 30.8789 33.0312C30.4648 34.0781 29.8867 34.9922 29.1445 35.7734C28.4023 36.5547 27.5352 37.1641 26.543 37.6016C25.5508 38.0312 24.4805 38.2461 23.332 38.2461ZM23.332 35.1289C24.1914 35.1289 24.9258 34.8984 25.5352 34.4375C26.1445 33.9766 26.6094 33.332 26.9297 32.5039C27.25 31.6758 27.4102 30.707 27.4102 29.5977V29.3047C27.4102 28.2188 27.2461 27.2656 26.918 26.4453C26.5977 25.6172 26.1328 24.9727 25.5234 24.5117C24.9141 24.0508 24.1758 23.8203 23.3086 23.8203C22.3945 23.8203 21.6445 24.0469 21.0586 24.5C20.4805 24.9531 20.0508 25.5898 19.7695 26.4102C19.4883 27.2305 19.3477 28.1953 19.3477 29.3047V29.5977C19.3477 30.707 19.4883 31.6797 19.7695 32.5156C20.0586 33.3438 20.4961 33.9883 21.082 34.4492C21.6758 34.9023 22.4258 35.1289 23.332 35.1289ZM40.9805 38.2461C39.8008 38.2461 38.7148 38.0312 37.7227 37.6016C36.7383 37.1641 35.8828 36.5547 35.1562 35.7734C34.4297 34.9922 33.8672 34.0781 33.4688 33.0312C33.0781 31.9766 32.8828 30.832 32.8828 29.5977V29.3281C32.8828 28.1016 33.0781 26.9648 33.4688 25.918C33.8672 24.8711 34.4258 23.957 35.1445 23.1758C35.8711 22.3945 36.7266 21.7852 37.7109 21.3477C38.6953 20.9102 39.7773 20.6914 40.957 20.6914C42.1133 20.6914 43.1875 20.9102 44.1797 21.3477C45.1719 21.7852 46.0391 22.3945 46.7812 23.1758C47.5312 23.957 48.1133 24.8711 48.5273 25.918C48.9414 26.9648 49.1484 28.1016 49.1484 29.3281V29.5977C49.1484 30.832 48.9414 31.9766 48.5273 33.0312C48.1133 34.0781 47.5352 34.9922 46.793 35.7734C46.0508 36.5547 45.1836 37.1641 44.1914 37.6016C43.1992 38.0312 42.1289 38.2461 40.9805 38.2461ZM40.9805 35.1289C41.8398 35.1289 42.5742 34.8984 43.1836 34.4375C43.793 33.9766 44.2578 33.332 44.5781 32.5039C44.8984 31.6758 45.0586 30.707 45.0586 29.5977V29.3047C45.0586 28.2188 44.8945 27.2656 44.5664 26.4453C44.2461 25.6172 43.7812 24.9727 43.1719 24.5117C42.5625 24.0508 41.8242 23.8203 40.957 23.8203C40.043 23.8203 39.293 24.0469 38.707 24.5C38.1289 24.9531 37.6992 25.5898 37.418 26.4102C37.1367 27.2305 36.9961 28.1953 36.9961 29.3047V29.5977C36.9961 30.707 37.1367 31.6797 37.418 32.5156C37.707 33.3438 38.1445 33.9883 38.7305 34.4492C39.3242 34.9023 40.0742 35.1289 40.9805 35.1289ZM50.2734 38V35.5977L52.0664 35.1641V23.7969L50.2734 23.3516V20.9375H52.0664H58.2656C59.8047 20.9375 61.168 21.2969 62.3555 22.0156C63.543 22.7266 64.4727 23.7148 65.1445 24.9805C65.8164 26.2383 66.1523 27.6914 66.1523 29.3398V29.6094C66.1523 31.2578 65.8164 32.7148 65.1445 33.9805C64.4727 35.2383 63.543 36.2227 62.3555 36.9336C61.168 37.6445 59.8047 38 58.2656 38H50.2734ZM56.1797 34.8828H58.0547C58.9219 34.8828 59.6484 34.6641 60.2344 34.2266C60.8203 33.7891 61.2617 33.1758 61.5586 32.3867C61.8633 31.5898 62.0156 30.6641 62.0156 29.6094V29.3281C62.0156 28.2734 61.8633 27.3516 61.5586 26.5625C61.2617 25.7734 60.8203 25.1602 60.2344 24.7227C59.6484 24.2852 58.9219 24.0664 58.0547 24.0664H56.1797V34.8828Z" fill="white"/>
<path d="M67.9805 38V36.5234L69.8906 36.1953V22.7539L67.9805 22.4258V20.9375H69.8906H75.8203C77.0391 20.9375 78.0781 21.1523 78.9375 21.582C79.7969 22.0039 80.4531 22.5977 80.9062 23.3633C81.3594 24.1289 81.5859 25.0234 81.5859 26.0469C81.5859 27.0781 81.3594 27.9766 80.9062 28.7422C80.4531 29.5078 79.7969 30.1016 78.9375 30.5234C78.0781 30.9453 77.0391 31.1562 75.8203 31.1562H72.1992V36.1953L74.1094 36.5234V38H67.9805ZM72.1992 29.3516H75.8203C76.9766 29.3516 77.8398 29.043 78.4102 28.4258C78.9883 27.8008 79.2773 27.0156 79.2773 26.0703C79.2773 25.125 78.9883 24.3359 78.4102 23.7031C77.8398 23.0703 76.9766 22.7539 75.8203 22.7539H72.1992V29.3516ZM82.9922 38V36.5234L84.9023 36.1953V21.5352L82.9922 21.207V19.7188H87.2109V36.1953L89.1211 36.5234V38H82.9922ZM96.3516 38.2461C94.9766 38.2461 93.9023 37.8047 93.1289 36.9219C92.3555 36.0391 91.9688 34.6641 91.9688 32.7969V27.1367L90.5156 26.8086V25.3203H91.9688H94.2773V32.8203C94.2773 34.1719 94.4766 35.1016 94.875 35.6094C95.2734 36.1172 95.8945 36.3711 96.7383 36.3711C97.5586 36.3711 98.2344 36.207 98.7656 35.8789C99.3047 35.543 99.7109 35.0703 99.9844 34.4609V27.1367L98.2852 26.8086V25.3203H99.9844H102.293V36.1953L103.746 36.5234V38H100.219L100.066 36.125C99.668 36.8047 99.1523 37.3281 98.5195 37.6953C97.8945 38.0625 97.1719 38.2461 96.3516 38.2461ZM110.941 43.1211C110.332 43.1211 109.672 43.0352 108.961 42.8633C108.25 42.6992 107.625 42.4727 107.086 42.1836L107.684 40.3906C108.113 40.6172 108.621 40.8047 109.207 40.9531C109.793 41.1016 110.363 41.1758 110.918 41.1758C111.949 41.1758 112.703 40.8867 113.18 40.3086C113.664 39.7305 113.906 38.9062 113.906 37.8359V36.6289C113.492 37.1602 112.996 37.5625 112.418 37.8359C111.84 38.1094 111.176 38.2461 110.426 38.2461C109.395 38.2461 108.504 37.9922 107.754 37.4844C107.004 36.9688 106.426 36.2539 106.02 35.3398C105.621 34.418 105.422 33.3516 105.422 32.1406V31.8945C105.422 30.5352 105.621 29.3438 106.02 28.3203C106.426 27.2969 107.004 26.5039 107.754 25.9414C108.504 25.3711 109.402 25.0859 110.449 25.0859C111.246 25.0859 111.945 25.2422 112.547 25.5547C113.148 25.8672 113.652 26.3203 114.059 26.9141L114.27 25.3203H116.215V37.8359C116.215 38.9297 116.008 39.8711 115.594 40.6602C115.188 41.4492 114.59 42.0547 113.801 42.4766C113.02 42.9062 112.066 43.1211 110.941 43.1211ZM111 36.3711C111.695 36.3711 112.277 36.2148 112.746 35.9023C113.215 35.582 113.602 35.1328 113.906 34.5547V28.7188C113.609 28.1797 113.223 27.7539 112.746 27.4414C112.27 27.1211 111.695 26.9609 111.023 26.9609C110.289 26.9609 109.676 27.1719 109.184 27.5938C108.699 28.0156 108.336 28.5977 108.094 29.3398C107.852 30.0742 107.73 30.9258 107.73 31.8945V32.1406C107.73 33.4141 108 34.4375 108.539 35.2109C109.078 35.9844 109.898 36.3711 111 36.3711ZM115.863 27.207L114.961 25.3203H117.785V26.7969L115.863 27.207ZM124.078 38.2461C123.227 38.2461 122.43 38.1602 121.688 37.9883C120.945 37.8164 120.156 37.5508 119.32 37.1914L119.297 34.1797H121.043L121.477 35.9961C121.914 36.1758 122.336 36.3086 122.742 36.3945C123.156 36.4727 123.602 36.5117 124.078 36.5117C125.016 36.5117 125.688 36.332 126.094 35.9727C126.5 35.6133 126.703 35.168 126.703 34.6367C126.703 34.1367 126.496 33.7148 126.082 33.3711C125.676 33.0195 124.934 32.7227 123.855 32.4805C122.324 32.1289 121.195 31.6602 120.469 31.0742C119.75 30.4805 119.391 29.6914 119.391 28.707C119.391 28.0195 119.59 27.4062 119.988 26.8672C120.387 26.3203 120.941 25.8867 121.652 25.5664C122.363 25.2461 123.191 25.0859 124.137 25.0859C125.098 25.0859 125.918 25.1953 126.598 25.4141C127.285 25.6328 127.883 25.9258 128.391 26.293L128.508 29.1875H126.773L126.398 27.5C126.125 27.2969 125.801 27.1406 125.426 27.0312C125.051 26.9219 124.621 26.8672 124.137 26.8672C123.418 26.8672 122.832 27.0352 122.379 27.3711C121.934 27.707 121.711 28.1289 121.711 28.6367C121.711 28.9336 121.773 29.1914 121.898 29.4102C122.031 29.6289 122.281 29.8281 122.648 30.0078C123.016 30.1797 123.555 30.3516 124.266 30.5234C126.031 30.9375 127.262 31.4648 127.957 32.1055C128.66 32.7461 129.012 33.5352 129.012 34.4727C129.012 35.543 128.613 36.4414 127.816 37.168C127.027 37.8867 125.781 38.2461 124.078 38.2461Z" fill="#EBB732"/>
<circle cx="65.5" cy="12.5" r="11.5" fill="#022A3D" stroke="white" stroke-width="2"/>
<path d="M58.4241 20.2966L58.0355 18.8463L59.0431 18.3337L57.1835 11.3934L56.0545 11.4533L55.664 9.9959L64.1465 7.72302L64.9598 10.758L63.085 11.2604L62.7341 10.1488L59.7273 10.9544L60.3662 13.3386L63.8681 12.4002L64.3761 14.2963L60.8742 15.2346L61.5263 17.6683L62.6552 17.6084L63.0438 19.0587L58.4241 20.2966Z" fill="white"/>
<path d="M67.7131 17.8076L67.4743 16.9162L68.5743 16.4091L66.4 8.29449L65.1938 8.40539L64.953 7.50691L66.1062 7.19792L69.686 6.23872C70.4218 6.04158 71.0838 6.0032 71.6721 6.12359C72.2592 6.23926 72.7514 6.49155 73.1488 6.88047C73.5462 7.26938 73.8277 7.77276 73.9932 8.39061C74.16 9.01318 74.1686 9.59222 74.0189 10.1277C73.8692 10.6632 73.569 11.1278 73.1185 11.5215C72.6679 11.9152 72.0748 12.2107 71.339 12.4078L69.1529 12.9936L69.9681 16.0357L71.1743 15.9248L71.4132 16.8162L67.7131 17.8076ZM68.861 11.9041L71.0471 11.3183C71.7451 11.1313 72.2163 10.8053 72.4608 10.3405C72.7087 9.86965 72.7562 9.34889 72.6033 8.77821C72.4504 8.20752 72.1482 7.77792 71.6969 7.4894C71.2502 7.19963 70.6778 7.14826 69.9798 7.33529L67.7937 7.92105L68.861 11.9041Z" fill="#EBB732"/>
</svg>
